<svg id="Layer_1" data-name="Layer 1" xmlns="http://www.w3.org/2000/svg" viewBox="0 0 138.69102 42.69447">
  <defs>
    <style>
      .cls-1 {
        fill: #8fc73e;
      }
    </style>
  </defs>
  <title>leaf2</title>
  <path class="cls-1" d="M173.68738,26.30566c17.50146,1.07477,34.85968,7.78259,49.92981,18.14709,6.66412,4.51093,12.801,9.93457,20.57373,13.90094a53.98918,53.98918,0,0,0,5.9707,2.72l7.13446,2.25549A68.8107,68.8107,0,0,0,270.28442,65.358c9.8161,0.63318,18.10077-.4989,23.51746-6.93579a24.96481,24.96481,0,0,0,2.5957-2.70563c0.76276-1.399.41681-3.75952,0.13226-5.1344-14.64331,2.00641-30.47485,3.82513-44.59821-3.22028,4.00092,1.89825,9.8219,1.87592,14.12244,2.00787a43.08827,43.08827,0,0,0,7.30481.02533l10.62341-.35547c0.902,0.37927,10.72662-.11084,10.84607-0.5144a3.96471,3.96471,0,0,0-1.11548-3.2489l-1.149-1.18195a34.42607,34.42607,0,0,0-7.66394-4.60406,55.32186,55.32186,0,0,0-13.08148-3.35114c-12.14484-1.9201-27.29944-3.70813-41.91565-5.70709l-3.43811-.48c-10.54279-1.38684-20.08972-3.89886-30.78711-5.69934-11.24323-1.93933-22.81134-2.18329-33.27417.9635-1.45367.41284-3.86469,0.31628-4.234,1.677l4.55963-.503A55.42436,55.42436,0,0,1,173.68738,26.30566Z" transform="translate(-158.16937 -22.81758)"/>
</svg>
