<svg id="Layer_1" data-name="Layer 1" xmlns="http://www.w3.org/2000/svg" viewBox="0 0 172.88676 190.76012">
  <defs>
    <style>
      .cls-1 {
        fill: #ec008c;
      }
    </style>
  </defs>
  <title>flower1</title>
  <path class="cls-1" d="M418.64494,205.51167q0.10425-1.30054.10627-2.62823,0-.42225-0.01076-0.842c9.11065,1.18122,33.7719,3.02109,44.9697-9.58114,13.879-15.61966,8.46389-30.7011,5.18518-36.38s-13.63209-17.90921-34.09857-13.69951c-16.099,3.31135-26.70821,24.569-30.50326,33.49133a32.447,32.447,0,0,0-2.81031-1.67733c5.84352-7.77441,18.89731-27.55175,13.724-43.12406-6.58757-19.82933-22.356-22.68047-28.91341-22.68047s-22.32584,2.85115-28.9134,22.68047c-5.17331,15.57231,7.88048,35.34965,13.724,43.12406a32.444,32.444,0,0,0-2.81032,1.67735c-3.795-8.92228-14.40426-30.18-30.50325-33.49135-20.4665-4.2097-30.81987,8.02059-34.09858,13.69951s-8.69377,20.76031,5.18518,36.38c11.19779,12.60223,35.85906,10.76236,44.96971,9.58114q-0.01069.41974-.01076,0.842,0,1.3274.10626,2.62823c-9.03247-1.18049-33.828-3.0779-45.06521,9.5687-13.87895,15.61968-8.46389,30.7011-5.18518,36.38s13.63208,17.90918,34.09858,13.69951c17.01288-3.49932,27.895-27.04027,31.08337-34.88581a32.4002,32.4002,0,0,0,3.20625,1.79575c-5.17272,6.641-20.18647,27.88532-14.70005,44.40011,6.58757,19.82934,22.356,22.68048,28.9134,22.68048s22.32585-2.85115,28.91341-22.68048c5.48641-16.51479-9.52733-37.75909-14.70007-44.40011a32.40037,32.40037,0,0,0,3.20626-1.79575c3.18835,7.84555,14.07049,31.3865,31.08339,34.88581,20.46648,4.20968,30.81986-8.02062,34.09857-13.69951s8.69378-20.76031-5.18518-36.38C452.473,202.43376,427.67742,204.33118,418.64494,205.51167Z" transform="translate(-299.8504 -108.39027)"/>
</svg>
