<svg id="Layer_1" data-name="Layer 1" xmlns="http://www.w3.org/2000/svg" viewBox="0 0 281.01984 60.96749">
  <defs>
    <style>
      .cls-1 {
        fill: #fff;
      }
    </style>
  </defs>
  <title>hpbd</title>
  <g>
    <path class="cls-1" d="M171.44971,533.34082c-2.35,2.91382-4.53489,6.17161-7.18164,8.81836,0.12863-2.44681.91812-20.62242-4.02319-17.40967-4.60545,2.99438,1.34869,12.43392-3.02028,16.39384-3.53114,3.20053-3.63714-1.7696-3.77489-4.25761-0.12351-2.23074-.022-4.49474-0.28479-6.7157-0.20334-1.71831.40077-4.45731-.26111-6.01184-1.35539-3.18336-4.86219-1.64548-5.5459,1-0.4783,1.85069-.24158,4.18549-0.31787,6.097a17.3579,17.3579,0,0,1-.05462,2.92939c-0.35945,1.57117-.62427,1.58136-2.07966,2.70117-0.4456-3.56478-.19608-7.72908-2.96023-10.485a6.69432,6.69432,0,0,0-9.94993,1.12172c-0.28837-2.02168-1.54526-8.35476-4.44047-4.14852-0.952,1.3831-.55957,5.26307-0.63323,6.90879a20.3002,20.3002,0,0,1-.104,3.66568c-0.425,1.74068-.48815,1.70276-2.09281,2.93734-0.4456-3.56478-.19608-7.72908-2.96023-10.485a6.69432,6.69432,0,0,0-9.94993,1.12172c-0.255-1.78793-.014-5.439-2.62476-5.37512-3.0387.07437-2.34784,5.93189-2.44106,7.8589-0.16582,3.42763.60047,7.65731-.79325,10.72877-0.548,1.20776-3.30521,7.41992-4.90095,6.49253-1.8083-1.05093-.09416-6.9988.15965-8.5549,0.30624-1.8775,2.48639-10.461,1.0107-11.75581-2.6657-2.339-5.30324,7.51057-6.13954,9.54173-0.47479,1.15312-2.27673,6.27416-3.90654,6.24555-2.72391-.04781-1.50259-5.08372-1.18164-6.54492a26.67906,26.67906,0,0,1,2.88495-7.55453,7.25087,7.25087,0,0,1,2.1593-2.7785c1.2108-.70844,2.46075.30284,3.32-0.03123,2.33582-.90812-1.20247-2.64048-2.64992-2.79159-2.742-.28627-5.5492,1.42535-7.25926,3.42831a20.39338,20.39338,0,0,0-3.7923,8.006,33.525,33.525,0,0,1-3.597,9.58c-2.46985,4.09854-2.66247-.067-2.51515-2.79068a86.44048,86.44048,0,0,0,.08869-12.24417c-0.2194-2.52244-.4821-6.93022-3.7599-7.251-3.759-.36792-5.14682,4.51-5.96932,7.24481,0-4.08938-.33592-8.18233-0.27246-12.27246,0.03593-2.31548,1.53133-10.42395-2.35159-10.27632-3.54843.13491-2.47026,7.45991-2.47686,9.71877-0.0137,4.68939-.38574,9.38335-0.56938,14.0689-0.15635,3.98941-1.443,9.5323-.42053,13.39783,0.84928,3.21086,4.62578,4.37183,6.10065.81335,0.92955-2.24277-.12486-5.14009.17279-7.45007a33.30559,33.30559,0,0,1,1.98761-6.4092,30.26291,30.26291,0,0,1,1.694-4.27293c0.08616-.15868,1.31536-2.15127,1.40918-1.68115,0.24916,1.49632-.73594,3.32438-1.01349,4.77774a52.689,52.689,0,0,0-.63332,5.97334c-0.23661,3.23-.74934,6.98482.15121,10.15289,0.84773,2.98224,2.968,5.362,6.28006,4.33908,3.07031-.94829,4.26383-3.68834,5.47762-6.36555,1.86661,4.66287,8.20656,4.89529,9.91858-.24078-0.11317,3.0581,1.05052,7.82427,4.951,7.821,3.455-.00291,5.11285-5.09292,6.48455-7.575,0.20695,5.28019.22456,10.56394,0.35077,15.84534,0.05469,2.28852.9783,10.68652,5.35729,6.37219,1.52451-1.502.83211-5.44273,0.77122-7.304-0.09094-2.77993-.27908-5.55831-0.27908-8.3411,3.30668,2.20544,6.87875,1.052,9.0351-2.02165a13.80714,13.80714,0,0,0,2.01317-4.555c0.24194-.96132.24866-1.9725,0.48288-2.92621,0.52531-2.139.4009-1.55139,2.29308-2.80948,0.08785,6.448.40708,12.89173,0.48116,19.34061,0.027,2.352-.50622,12.30042,4.78193,9.05995,3.43132-2.10265,1.09335-12.57637,1.09335-16.08824,3.30668,2.20544,6.87875,1.052,9.0351-2.02165a13.80714,13.80714,0,0,0,2.01317-4.555c0.24162-.96.24328-1.97562,0.48288-2.92621,0.54754-2.17235.50831-1.60558,2.46147-2.92044,0.4213,5.91447,5.66053,12.95482,11.188,6.42328-0.23954,2.90012.00727,5.1209-1.86534,7.37613-1.74885,2.10618-4.03808,4.31527-4.4081,7.16976-0.3571,2.75482,1.5731,6.06522,4.5895,6.18457,2.79682,0.11066,4.54764-2.46755,5.41639-4.78853,1.85026-4.94324.10544-11.09008,3.07915-15.45848,1.12-1.64529,2.52575-3.14891,3.79793-4.66582,0.81923-.97683,4.118-3.87056,4.20884-5.09107C173.23346,534.04,172.71049,531.82815,171.44971,533.34082Zm-53.08887,8c-0.25967,1.23481-3.66577,8.14276-4.5459,4.09082C113.41566,543.59342,117.89592,540.42754,118.36084,541.34082Zm0.27246-1.81836a19.81112,19.81112,0,0,0-5.81836,2.5459c-0.18151-3.90642-2.76975-13.187,2.31238-14.73454,5.08518-1.54843,3.84,9.58619,3.506,12.18864h0Zm19.9082,1.81836c-0.25961,1.23455-3.66538,8.14285-4.5459,4.09082C133.59614,543.59337,138.07663,540.42764,138.5415,541.34082Zm0.27246-1.81836a19.81112,19.81112,0,0,0-5.81836,2.5459c-0.18151-3.90642-2.76975-13.187,2.31238-14.73454,5.08518-1.54843,3.84,9.58619,3.506,12.18864h0Zm18.36328,18.36426c-0.20779,1.34455-1.2475,4.96872-2.5459,2.36328-0.9789-1.96431,1.89338-4.96707,2.90918-6.36328-0.089,1.33636-.27425,2.66364-0.36328,4C156.99463,559.06836,157.26807,556.52344,157.17725,557.88672Z" transform="translate(-63.42564 -505.95973)"/>
    <path class="cls-1" d="M216.26416,515.88574c2.75945-.73372,3.2808-4.12462.27246-4.90918C212.12009,509.82476,212.32112,516.87044,216.26416,515.88574Z" transform="translate(-63.42564 -505.95973)"/>
    <path class="cls-1" d="M342.71387,533.34082c-2.35,2.91382-4.53489,6.17161-7.18164,8.81836a48.11473,48.11473,0,0,0-.09094-8.12573c-0.24715-2.10524-.011-4.255-0.31067-6.31921-0.49553-3.41335-3.7475-4.77315-4.95924-.88232-1.02463,3.29.481,7.357-.09883,10.85028-0.41277,2.48658-3.306,6.59726-4.99539,3.0219-0.95761-2.02666-.39785-5.58593-0.49141-7.7939-0.08834-2.08465-.28868-4.12309-0.32359-6.15926-0.03387-1.97621-.06-4.70733-2.86078-4.44827-1.46785.13577-2.42469,1.59717-2.7793,2.85553-1.24563,4.42014.8664,9.58551-.08105,13.89563-0.48559,2.209-6.397,12.69953-6.45189,5.41025-0.02212-2.936.8361-5.90429,1.2337-8.799,0.18907-1.37651,1.42754-6.76962.7553-7.961-2.09169-3.70691-4.77935,4.22129-5.5,6.31836-0.56767,1.65189-2.50767,8.6371-4.772,8.68164-4.03349.07934-.2035-10.08589,0.54492-11.72754,0.67855-1.48837,1.4066-3.52863,2.68725-4.615a4.16285,4.16285,0,0,1,1.33079-.89917c0.62243-.19451,2.38873.4483,2.61819,0.33251,1.782-.89926-0.09847-2.13947-1.67609-2.62389-1.97293-.60579-4.28254.1921-5.94305,1.24161-3.64674,2.30488-5.52886,7.15561-6.362,11.21495-0.6056,2.95078-.28021,4.97995-2.11789,7.52124-1.11668,1.54423-3.123,4.90861-4.35461,2.64706-0.89034-1.63483.40119-6.84324,0.71122-8.68756,0.53477-3.18127,2.16026-5.697,3.58443-8.59735,2.41356-4.91521,5.683-11.80223,4.94336-17.39819-0.85153-6.44272-6.76637-6.80022-9.42065-1.31885a56.40465,56.40465,0,0,0-4.81836,17.91016c-5.20581-4.09114-9.46232,3.28329-10.27246,7.36328a25.67443,25.67443,0,0,1-3.38925,8.95027c-1.39607,2.276-2.13013,2.737-2.59233-.47153-0.85791-5.95549,1.39247-12.23312-.3642-18.25648-0.71767-2.46077-2.23625-4.30569-5.00737-3.2239-2.60287,1.01611-3.46821,4.505-4.19178,6.91083,0-5.07573-.28372-10.12852-0.14106-15.20544,0.05-1.77783.60444-5.6848-1.10018-6.91231-1.3976-1.00642-2.67045-.18485-3.39451,1.11677-1.00144,1.80027-.46844,5.43411-0.47526,7.43179-0.00928,2.71739-.14992,5.4238-0.25985,8.13944-0.21489,5.30882.382,11.54636-.76584,16.72192-0.4473,2.0168-5.109,9.09024-6.68167,5.16291-0.71079-1.775-.00914-4.67689.127-6.49987,0.21814-2.92122.39912-5.84481,0.63136-8.76531,0.20972-2.63721.41176-5.27516,0.66409-7.90843,0.05085-.5307-0.05539-4.00646.39592-4.37228a7.05678,7.05678,0,0,1,1.59131,0c0.90367-.21325,2.18488.41744,2.7188-0.70714,1.19971-2.52688-3.22712-2.0196-4.21929-1.92958-0.156-2.00609.38124-4.625-.27246-6.5459-0.991-2.91194-3.17506-1.92547-4.037.43124a38.36728,38.36728,0,0,0-.89909,3.93273c-0.70614,2.84182-.96471,2.4115-3.7037,2.9498-4.68421.9206,0.76474,1.44032,2.73065,1.68721-0.7049,4.93812-.939,10.00486-1.19336,14.984-0.20558,4.02472.49359,8.07684-1.8621,11.46238-0.84173,1.20972-3.442,5.40825-5.2815,5.01736-2.62768-.55836-0.39408-9.36766-0.26753-11.05455a21.35567,21.35567,0,0,1,.94261-5.54124c0.51875-1.59664.913-2.594-.65608-3.62093-1.15622-.75676-2.85334-0.42106-4.13516-0.70209-3.03775-.666-1.27353-1.26057-1.52063-3.60374-0.46839-4.44161-5.91791-2.80122-5.63867,1.14951,0.24139,3.41522,3.759,5.19252,6.7052,5.72766-4.26181,2.11951-6.13393,8.94017-9.94818,12.73424-1.94185,1.93158-2.75055,2.0922-3.034-.33682-0.4251-3.64256,1.00022-8.08228,1.27835-11.76156,0.1554-2.05573.71932-13.26039-4.14457-10.06261-2.40471,1.581-2.55576,6.34312-2.86581,8.8253-0.158,1.26518.2305,4.229-.409,5.27985-0.59947.98508-3.08648,2.00046-4.05646,2.68488-0.61819-4.12571-5.94512-10.74522-10.63672-7q0.23791-5.69543.19938-11.39806c-0.01584-2.2619.7698-7.60963-.60853-9.60717a3.29457,3.29457,0,0,0-4.09537-1.16709c-1.86846.90842-1.64243,2.66321-1.61084,4.44448,0.1343,7.5725.41417,15.16569,0.68256,22.73516,0.13241,3.73433.3722,7.46871,0.86182,11.1748,0.4085,3.09207,1.25268,5.23031,2.36737.8488a67.10209,67.10209,0,0,0,1.68829-9.912c0.14925-1.5-.18432-3.99563.85231-4.97537,1.03841-.98142,2.88565-0.40208,3.8209.41438,1.6975,1.48189,2.64077,6.284,1.66047,8.16957-1.24894,2.40231-4.93612,3.32583-6.28713,5.90362-2.99233,5.70956,4.37116,9.33033,8.17126,4.91991,1.88873-2.19207,2.56658-5.168,2.9119-7.958a21.21012,21.21012,0,0,1,.25035-3.32c0.52765-1.64346,2.0055-2.23266,3.61438-3.1413-0.31512,4.15236-.14951,13.06974,6.76455,10.9181,4.30684-1.34028,8.596-9.37636,10.77927-12.95033-0.75121,4.48062-1.29889,11.21718,2.59312,14.55633,4.53667,3.89222,9.163-2.31929,10.76784-6.231,0.61087,2.827,2.92244,5.1071,5.96094,4.82344,2.96749-.277,5.15992-3.07925,6.64923-5.37715a3.11272,3.11272,0,0,0,5.43068.54679c1.72061-2.27214.3198-6.47038,0.77744-9.04307a41.6394,41.6394,0,0,1,3.06733-9.10242c0.05716-.12785,1.71376-3.069,1.81836-2.54492,0.24916,1.49632-.73594,3.32438-1.01349,4.77774a52.689,52.689,0,0,0-.63332,5.97334c-0.23661,3.23-.74934,6.98482.15121,10.15289,0.84773,2.98224,2.968,5.362,6.28006,4.33908,3.13025-.9668,4.29216-3.78464,5.53828-6.4983,1.83438,4.88089,6.45759,4.83161,9.94874,1.61951,0.22738,2.95834,2.546,5.67976,5.75848,5.11269,2.83776-.50093,4.87767-3.62463,6.43207-5.77779a5.16652,5.16652,0,0,0,9.536-1.06244c-0.11783,3.184,1.26391,8.34594,5.46075,7.76239,3.35674-.46674,5.38155-6.42438,6.78516-8.97906,1.80387,4.856,6.92392,6.12992,10.38934,2.035-0.23954,2.90012.00727,5.1209-1.86534,7.37613-1.74885,2.10618-4.03808,4.31527-4.4081,7.16976-0.3571,2.75482,1.5731,6.06522,4.5895,6.18457,2.79682,0.11066,4.54764-2.46755,5.41639-4.78853,1.85026-4.94324.10544-11.09008,3.07915-15.45848,1.12-1.64529,2.52575-3.14891,3.79793-4.66582,0.81923-.97683,4.118-3.87056,4.20884-5.09107C344.49762,534.04,343.97465,531.82815,342.71387,533.34082Zm-49.18018-16.001c0.30767-2.25039-.51771-6.35758.59215-8.41272,1.14444-2.11916,2.527-.41119,3.06468,1.41949,0.79148,2.695-.41491,6.14975-1.11978,8.74591a51.22376,51.22376,0,0,1-4.082,11.2483c0.54071-4.33052,1.09324-8.66,1.54492-13.001C293.80713,515.33984,293.07959,521.7041,293.53369,517.33984ZM226.8999,525.7041l-0.27344.81836C224.44947,524.33961,227.49586,522.7179,226.8999,525.7041Zm-27.543,23.72754a2.14839,2.14839,0,0,1-1,1.18164c-0.55784-1.67351,1.40479-3.49216,2.4541-4.4541a17.97354,17.97354,0,0,1-1.4541,3.27246C199.17529,549.97754,199.90186,548.43164,199.35693,549.43164Zm85.63184-15c-0.07491,1.87431.686,5.311-.09082,6.90918-0.89009,1.83117-2.77916,2.36978-3.9248.80273-1.83461-2.50943.13221-12.53738,4.28809-12.07617a35.32346,35.32346,0,0,0-.27246,4.36426C284.89795,536.7041,284.98877,532.97656,284.98877,534.43164Zm43.45166,23.45508c-0.20671,1.34474-1.24676,4.96881-2.54492,2.36328-0.97865-1.96425,1.89348-4.96721,2.90918-6.36328-0.089,1.33639-.27428,2.66369-0.36426,4C328.25879,559.06836,328.53223,556.52344,328.44043,557.88672Z" transform="translate(-63.42564 -505.95973)"/>
  </g>
</svg>
