<svg id="Layer_1" data-name="Layer 1" xmlns="http://www.w3.org/2000/svg" viewBox="0 0 138.11434 124.35611">
  <defs>
    <style>
      .cls-1 {
        fill: #e688b8;
      }
    </style>
  </defs>
  <title>flower2</title>
  <path class="cls-1" d="M547.84081,139.66506a19.57316,19.57316,0,0,0,1.27752-5.5593,31.05437,31.05437,0,0,0-1.47766-11.513,50.50341,50.50341,0,0,0-5.36527-11.82889,72.14074,72.14074,0,0,0-11.892-14.40721,79.53592,79.53592,0,0,0,26.43432-.65185A45.67054,45.67054,0,0,0,568.878,91.98414c3.33277-1.68877,7.27291-4.63008,7.3566-8.74476a9.07292,9.07292,0,0,0-2.30015-5.59214,19.57473,19.57473,0,0,0-4.17577-3.886,31.05421,31.05421,0,0,0-10.7094-4.4768,50.5027,50.5027,0,0,0-12.92674-1.268,72.14065,72.14065,0,0,0-18.42572,3.09867,79.53817,79.53817,0,0,0,12.65538-23.22229A45.66969,45.66969,0,0,0,543.16016,35.588c0.20387-3.73064-.37332-8.61355-3.89486-10.74337a9.07272,9.07272,0,0,0-5.993-.804,19.57358,19.57358,0,0,0-5.45325,1.67331,31.05327,31.05327,0,0,0-9.23173,7.0362,50.50271,50.50271,0,0,0-7.56146,10.5609,72.1389,72.1389,0,0,0-6.531,17.50234,79.5374,79.5374,0,0,0-13.78167-22.56689,45.671,45.671,0,0,0-9.25231-8.58416c-3.12891-2.04186-7.64625-3.98345-11.25149-1.99865a9.07284,9.07284,0,0,0-3.69286,4.78811,19.57481,19.57481,0,0,0-1.27748,5.55932,31.05346,31.05346,0,0,0,1.47766,11.513A50.50246,50.50246,0,0,0,472.08189,61.353a72.13962,72.13962,0,0,0,11.89191,14.4072,79.53765,79.53765,0,0,0-26.43432.65185,45.67086,45.67086,0,0,0-12.06026,3.72066c-3.33276,1.68875-7.27288,4.6301-7.35659,8.74474a9.07278,9.07278,0,0,0,2.30018,5.59216,19.57446,19.57446,0,0,0,4.17574,3.886,31.05358,31.05358,0,0,0,10.70939,4.47682,50.50289,50.50289,0,0,0,12.92679,1.268,72.1407,72.1407,0,0,0,18.42573-3.09867A79.53654,79.53654,0,0,0,474.005,124.224a45.67048,45.67048,0,0,0-2.80795,12.30482c-0.20387,3.73064.37336,8.61357,3.89488,10.74341a9.07307,9.07307,0,0,0,5.993.804,19.5748,19.5748,0,0,0,5.45326-1.67332,31.05379,31.05379,0,0,0,9.23169-7.03621,50.5045,50.5045,0,0,0,7.56149-10.56088,72.14107,72.14107,0,0,0,6.531-17.50238,79.53684,79.53684,0,0,0,13.7817,22.56691,45.6708,45.6708,0,0,0,9.25231,8.58416c3.12889,2.04187,7.64624,3.98347,11.25146,1.99863A9.07279,9.07279,0,0,0,547.84081,139.66506Z" transform="translate(-438.12145 -23.88036)"/>
</svg>
