<svg id="Layer_1" data-name="Layer 1" xmlns="http://www.w3.org/2000/svg" viewBox="0 0 65.89624 65.89622">
  <defs>
    <style>
      .cls-1 {
        fill: #fff200;
      }
    </style>
  </defs>
  <title>flower3</title>
  <path class="cls-1" d="M386.29378,58.27159c0-1.42536-6.9905-2.58088-15.61376-2.58088a76.182,76.182,0,0,0-9.91826.58761,76.49834,76.49834,0,0,0,8.8003-4.41576c7.46794-4.31162,12.94418-8.80756,12.23148-10.042s-7.34442,1.26016-14.81235,5.57178a76.18319,76.18319,0,0,0-8.29565,5.468,76.49258,76.49258,0,0,0,5.41341-8.22424c4.31162-7.468,6.8062-14.09968,5.57178-14.81238s-5.73037,4.76354-10.042,12.2315a76.17907,76.17907,0,0,0-4.45026,8.88326,76.50213,76.50213,0,0,0,.576-9.82917c0-8.62326-1.15548-15.61376-2.58085-15.61376s-2.58088,6.9905-2.58088,15.61376a76.18643,76.18643,0,0,0,.58759,9.91826,76.49779,76.49779,0,0,0-4.41573-8.8003c-4.31163-7.46794-8.80758-12.94418-10.042-12.23148s1.26016,7.34439,5.57179,14.81235a76.17953,76.17953,0,0,0,5.468,8.29565,76.50763,76.50763,0,0,0-8.2243-5.41341c-7.468-4.31164-14.09966-6.8062-14.81235-5.57178s4.76353,5.73037,12.23149,10.042a76.1853,76.1853,0,0,0,8.88325,4.45026,76.498,76.498,0,0,0-9.82915-.576c-8.62324,0-15.61377,1.1555-15.61377,2.58088s6.99053,2.58088,15.61377,2.58088a76.18643,76.18643,0,0,0,9.91826-.58759,76.49963,76.49963,0,0,0-8.8003,4.41573c-7.468,4.31164-12.94418,8.80756-12.23149,10.042s7.34442-1.26016,14.81237-5.57178a76.18192,76.18192,0,0,0,8.29565-5.468,76.49892,76.49892,0,0,0-5.4134,8.22427c-4.31163,7.46794-6.8062,14.09968-5.57179,14.81235s5.73037-4.76354,10.042-12.23148a76.18329,76.18329,0,0,0,4.45028-8.88329,76.50212,76.50212,0,0,0-.576,9.82919c0,8.62326,1.15548,15.61376,2.58088,15.61376s2.58085-6.9905,2.58085-15.61376a76.18253,76.18253,0,0,0-.58759-9.91828,76.50027,76.50027,0,0,0,4.41576,8.80032c4.31162,7.46794,8.80754,12.94415,10.042,12.23148s-1.26016-7.34442-5.57178-14.81235a76.18007,76.18007,0,0,0-5.468-8.29567,76.50507,76.50507,0,0,0,8.22429,5.41341c7.468,4.31164,14.09968,6.8062,14.81235,5.5718s-4.76351-5.73037-12.23148-10.042a76.1788,76.1788,0,0,0-8.88322-4.45026,76.50191,76.50191,0,0,0,9.82912.576C379.30327,60.85247,386.29378,59.697,386.29378,58.27159Z" transform="translate(-320.39754 -25.49556)"/>
</svg>
