<svg id="Layer_1" data-name="Layer 1" xmlns="http://www.w3.org/2000/svg" viewBox="0 0 204.01162 151.22107">
  <defs>
    <style>
      .cls-1 {
        fill: #8fc73e;
      }
    </style>
  </defs>
  <title>leaf3</title>
  <path class="cls-1" d="M152.25116,112.14984c-1.21442-4.015,14.14178-9.02167,16.84619-14.09747,2.04211-3.82666-10.23712-.86847-6.69415-5.86053,1.10925-1.55914,5.4483-5.72076,10.48254-6.2915,5.59961-.63544,10.61853.05554,13.03888-1.63947,2.45874-1.72559-9.40186-8.41412-8.64551-9.68481,0.75653-1.27234,5.36377-1.29889,9.104-.48248,3.74176,0.8205,9.76532-.34808,11.29144-1.42126,1.10443-.78076-5.78119-2.92035-6.43091-3.93274-1.08-1.68475,2.04126-3.43372,4.11865-3.76135,2.07385-.33136,7.17932.04248,7.47052-2.287,0.28967-2.334-4.82989-1.62207-3.75482-3.95984,1.0766-2.33392,9.26337,1.28363,11.57306-3.91821,0.54388-1.21912-5.30481-5.55823-10.92822-3.21472-3.82526,1.59387-9.09338,4.13922-12.06049,3.15942-2.06329-.68457,3.4693-4.77759,4.9834-7.05707,1.31854-1.984-8.09082-3.51019-15.43195.0545-4.6535,2.25714-10.904,7.64465-13.51648,5.42535-2.04437-1.74115.70941-6.36432-.16339-9.81006-0.75854-2.97858-7.43384,3.72028-10.51794,10.65558-2.4469,5.49963-1.80615,5.66193-2.28668,6.46985-0.48285.8114-.72784,2.54272-2.34521,2.36475-1.61694-.18231,1.33453-8.29163-3.497-9.12836-4.82361-.83813-7.49231,20.011-9.57336,20.29913-2.56055.354-.58081-7.70679-2.80048-7.93158-2.676-.26733-4.69476,3.1571-6.25372,7.08594-1.08331,2.745-2.41406,8.26984-5.37085,7.44934-2.79956-.77478-2.89807-6.26447-2.65857-7.37567,2.34039-10.71265-.98865-14.21509-2.78766-13.82489-1.73938.381-2.80627,4.01642-4.07166,6.14252q-2.96375,4.971-4.39569,3.96051c-2.3432-1.64972.26337-8.88586,0.93042-13.7533,1.16785-8.54132-.83521-13.85925-3.56323-15.06769-4.44208-1.9632-5.96967,8.983-7.75647,8.12262-3.166-1.51459-4.09833-14.865-6.28809-16.0119-3.34027-1.74817-4.28711,6.5882-5.91718,6.34613-1.61865-.23883-4.52979-6.49078-5.46625-9.41241-0.9472-2.96741-1.4234-6.3786-2.65375-6.85333-0.75433-.28741-1.80792,2.16016-1.81219,5.499-0.00256,3.34076-.41656,4.29443-1.49524,4.17365-1.87994-.20642-4.23987-5.23578-4.53516-7.81549-0.15857-1.40735-2.352-5.47034-3.16925-4.10449-0.85907,1.447-.5448,3.90375-1.39856,5.11743-0.92041,1.30786-2.5874-6.70612-4.46393-5.00208-2.39087,2.17047-6.577-11.175-9.51678-10.28534-2.00385.60846,4.13116,9.114,3.58148,10.03955-0.55353.925-3.59668-2.03522-4.08112-.4212-0.3241,1.06274,2.28735,2.72351,4.2597,3.89465,3.081,1.83551-.624,2.4483-0.95612,4.7583-0.20386,1.43689,5.85651,3.34973,5.71753,6.01007-0.10352,1.92407-8.31732-2.22772-9.37036,1.00305-0.88239,2.71021,12.95721,7.70337,12.76135,10.311-0.118,1.60229-6.95325-1.83441-6.59827.03894,0.37476,1.99847,10.49011,8.33459,10.09863,10.39587-0.39191,2.06519-6.95685-1.63562-6.24,1.71539,0.7475,3.48535,9.59778,6.35547,10.841,11.25439,0.93817,3.69312-12.65485-1.8913-12.02283,2.65942,0.4989,3.60114,13.60229,8.723,14.53131,10.32166,0.92938,1.595-3.313,3.45691-2.99524,5.73438,0.31586,2.277,13.47168,6.13727,12.24695,8.54156-1.221,2.40619-13.68225-1.30194-13.444,1.1897,0.24023,2.49182,2.44983,2.81122,2.10925,4.175-0.31873,1.26874-2.84094,1.7027-6.20709.69208-5.38287-1.61853-6.78748-1.26416-6.9079.37891-0.13342,1.80176,7.49646,4.26843,6.67682,6.05981-1.22369,2.66974-17.55951-6.87988-19.0351-2.13983-1.02765,3.30377,9.84729,4.7652,8.79352,7.94733-0.72186,2.15692-5.72821-2.83081-7.61017-.1958-1.173,1.6441,1.45978,2.28-.24036,4.08844-1.29431,1.3717-10.52454-4.98773-13.39319-1.70612-1.14258,1.30371,5.926,5.3,5.14642,7.13666-0.65045,1.54144-18.18909-1.54-18.05872,3.504,0.03192,1.23969,3.86157,1.14374,4.05072,2.66766,0.18719,1.52332-7.40955,2.02625-12.48181,8.34137-4.03137,5.01282-5.29132,11.7793-3.69843,11.47253,1.58881-.30518,6.19812-9.62451,8.55353-9.62909,2.35394-.00916-0.327,3.601,2.15521,4.62317,1.42133,0.58856,4.92407-6.51862,7.88086-5.69806,2.95691,0.81909-2.1756,9.89862,2.47675,8.9906,3.90039-.75989,11.03253-7.6781,12.54846-8.45386,2.696-1.36835-.8949,6.07147,1.00726,6.032,4.23578-.0954,8.187-4.63049,10.53662-5.42456,2.3515-.79242,4.42053-1.023,5.5127.56567,1.0921,1.58893-5.85937,5.95026-2.76965,6.49432,1.74768,0.31116,3.49127-.51233,6.21667-1.93665,2.04358-1.07294,5.2298-1.28778,6.22028.77826,0.83643,1.75281-4.32965,8.08722-1.92334,8.668,2.50891,0.60706,9.08466-8.163,13.85242-11.43726,4.76929-3.2702,10.80743-4.99713,13.69769-3.27765,2.31726,1.37946-7.15063,5.42438-4.1535,6.45233,3.12067,1.07867,11.74664-2.798,15.9646-2.0849,11.38428,1.92181,3.54474,6.11438,5.8,8.14941,2.0376,1.84174,7.62427-.66968,12.30542.90088,1.98926,0.66913,4.83881,3.843,7.55139,7.597l-0.32733-1.6153c-1.25769-6.21069-2.68506-13.24792-3.33429-16.75769-1.078-3.26062-4.1391-6.10773-8.37177-7.7088a15.556,15.556,0,0,0-3.8429-.89764,23.87707,23.87707,0,0,0-11.13458,1.81873l-0.733-1.404c4.01654-2.583,7.88153-3.63373,11.81836-3.21429a19.0119,19.0119,0,0,1,4.84094,1.20709c0.4519,0.175.89685,0.36108,1.33063,0.55963-3.49854-2.57147-8.38513-4.57812-14.74951-6.07446a34.74486,34.74486,0,0,0-4.24054-.72131c-7.20746-.76794-13.51111.90356-19.61,2.52271-6.12732,1.62976-12.46393,3.31732-19.71,2.54523a33.99759,33.99759,0,0,1-3.87195-.64294l0.26074-1.56757c8.66711,0.92352,15.323-.90186,21.75763-2.66681l0.87488-.23877c1.37811-.38037,3.03448-0.82483,4.8269-1.245-4.91022-1.49176-9.35724-4.12329-11.46344-6.91547l1.21265-1.02679c2.82562,2.986,9.67328,5.73865,15.92694,6.405,0.79932,0.08521,1.58478.13568,2.34906,0.14679l0.03711,0.00006a38.33209,38.33209,0,0,1,7.6825.02972,36.86314,36.86314,0,0,1,4.57574.78241c8.90051,2.08679,15.16022,5.18878,18.99609,9.43256-0.3335-1.72656-.63257-3.48267-0.90985-5.35162-0.44238-2.18921-4.70038-22.07977-16.13354-34.41064-4.36115-6.186-17.27612-13.3147-25.65747-14.20776A14.912,14.912,0,0,0,81.03,80.36768l-0.18359-1.57581a18.98182,18.98182,0,0,1,5.45294-.12,38.89237,38.89237,0,0,1,16.13239,5.97968c-1.60937-2.12219-3.27887-4.30353-4.98792-6.51642a20.45592,20.45592,0,0,1-2.13721-2.75836c-1.35852-1.746-3.79871-4.61084-6.62238-7.92664C79.36755,56.51447,66.60767,41.535,65.48138,35.37341l1.52411-.43121c1.43341,3.70068,4.97253,8.42053,7.94629,11.73865a21.93266,21.93266,0,0,1,.18848-9.2453l1.56482,0.23114a28.30857,28.30857,0,0,0,3.5506,14.36139c3.50183,4.35468,7.33752,9.16858,11.18982,14.06433-0.50287-3.01385-.05841-5.49908.88672-6.74573l1.39655,0.71118c-0.89728,2.97791.78632,9.15,3.75177,13.756l2.12378,2.73743,0.57355,0.6098-0.05377.06458c11.48413,14.89429,18.3761,24.6344,20.4856,28.95392a81.66559,81.66559,0,0,1,3.85126,9.28522c1.21753-8.421,6.72064-20.484,23.65106-35.37146a45.51147,45.51147,0,0,1,4.21576-3.24329c3.56421-3.23071,6.62415-8.01477,7.1936-11.30682l1.57324,0.04266c0.22241,1.87091-.63214,4.75964-1.98547,7.21637,0.40967-.21606.84583-0.44293,1.30493-0.683,3.92523-2.05579,9.86023-5.16077,16.3952-9.16846l0.94873,1.26685c-3.8645,3.48383-8.68073,6.09491-13.77869,8.85754-4.949,2.68481-10.03265,5.44122-14.10071,9.02045-0.92413.81152-1.9054,1.75555-2.913,2.80023a20.34147,20.34147,0,0,1,8.49219-1.59454L155.4671,84.882A30.29835,30.29835,0,0,0,138.188,94.63c-0.83716.94763-7.10278,8.23712-9.97839,17.00873,3.3819-4.76349,8.379-8.57764,12.16235-8.80719l0.23328,1.56744c-3.91949.93951-12.097,8.06628-13.69421,16.89789,0.054,0.50177.119,1.19214,0.22607,1.87329,0.14075,0.87805.379,1.77631,0.60846,2.64624a26.06667,26.06667,0,0,1,.62262,2.75128c0.35584,1.7738,1.48126,7.04492,2.80566,13.25293,1.34863,6.31464,2.8974,13.57373,4.068,19.1723,1.23975-12.93616,10.04419-20.59515,11.48755-24.56586,1.184-3.26782-7.43005-.76825-6.93665-3.34595,0.58734-3.0932,2.89471-5.70776,9.045-7.82715,5.77533-1.99146,11.49231-4.22339,12.95862-7.74036C163.30676,113.89417,153.46606,116.15955,152.25116,112.14984Z" transform="translate(-6.67467 -10.44788)"/>
</svg>
