<svg id="Layer_1" data-name="Layer 1" xmlns="http://www.w3.org/2000/svg" viewBox="0 0 98.94111 66.23645">
  <defs>
    <style>
      .cls-1 {
        fill: #8fc73e;
      }
    </style>
  </defs>
  <title>leaf5</title>
  <path class="cls-1" d="M249.40033,234.45227c-7.38043-8.51465-15.13367-29.9118-33.20532-43.849-18.071-13.93591-35.35535-6.58234-40.48486-2.788a9.29283,9.29283,0,0,0-3.5827,7.73486,51.98986,51.98986,0,0,1,13.28931-1.48163c18.92023,1.46716,31.18127,15.98468,33.45441,18.30109,1.17712,1.25714,3.14209,3.62,5.32764,6.48621a76.33127,76.33127,0,0,0,7.39032,8.86621,143.1008,143.1008,0,0,0,10.80817,10.20026,128.97758,128.97758,0,0,1-11.99463-8.95087,70.11106,70.11106,0,0,1-8.43719-8.25543c-2.41888-2.64221-4.48755-4.79224-5.61835-6.00067a54.99969,54.99969,0,0,0-10.1532-8.591,59.31783,59.31783,0,0,0-9.79681-5.0293,25.8067,25.8067,0,0,0-11.04651-2.183,53.25182,53.25182,0,0,0-18.41174,4.08105c-1.26386,2.57574-1.60419,6.59229.8761,12.80566,29.19794,50.03467,97.09174,28.11188,97.09174,28.11188S256.78076,242.967,249.40033,234.45227Z" transform="translate(-165.96556 -182.45608)"/>
</svg>
