<svg id="Layer_1" data-name="Layer 1" xmlns="http://www.w3.org/2000/svg" viewBox="0 0 125.9542 98.81207">
  <defs>
    <style>
      .cls-1 {
        fill: #8fc73e;
      }
    </style>
  </defs>
  <title>leaf1</title>
  <path class="cls-1" d="M280.40717,117.91937a73.20739,73.20739,0,0,0,9.81775-8.09229c3.43762-3.70551,7.76758-11.3905,7.76758-11.3905s-4.70441-1.17627-8.45789-1.7243a50.56634,50.56634,0,0,0-9.78821.09045,5.38,5.38,0,0,1,.722-3.54187,8.52071,8.52071,0,0,1,2.71777-3.12726s-6.541.06812-10.46576,0.26776c-3.92346.20264-10.4679,1.0683-10.4679,1.0683a11.88944,11.88944,0,0,1,1.611-3.19055,14.88622,14.88622,0,0,1,2.75348-3.28345s-9.54144.14075-13.91461,0.68481a99.9039,99.9039,0,0,0-10.535,2.17731s0.63129-2.50952,1.15381-4.08984a43.27967,43.27967,0,0,1,2.66669-5.22363s-7.34235.07086-11.3,1.2179a55.53458,55.53458,0,0,0-9.15851,4.069s-1.01849-.40918-0.78955-2.41187a6.64991,6.64991,0,0,1,1.11884-3.13525A36.884,36.884,0,0,0,215.632,80.52173a32.16325,32.16325,0,0,0-8.39478,5.82391,3.49691,3.49691,0,0,1-1.31506-2.19324c-0.19525-1.39813.78711-4.64355,0.78711-4.64355s-6.56439,4.709-9.22974,7.56689A44.52225,44.52225,0,0,0,192.621,93.614a4.1902,4.1902,0,0,1-1.4682-2.22168,7.69128,7.69128,0,0,1-.2652-3.42,26.72865,26.72865,0,0,0-8.28906,10.80658c-2.76251,6.88049-2.56226,11.0083-2.56226,11.0083s-0.21112.44122-2.33325-1.91388a12.924,12.924,0,0,1-2.75366-4.56592s-4.99512,18.397-1.899,35.90607a77.00325,77.00325,0,0,0,12.42468-.75824,38.46422,38.46422,0,0,1,4.21185-17.94159c2.13989-3.83,6.85632-11.67719,10.0376-14.09082-2.23169,3.132-6.58356,12.36865-8.69342,18.9176-1.87549,5.81293-1.71887,6.541-1.89789,12.54144,2.63226-.45526,5.2561-1.0105,7.86261-1.6347,3.53967-.85266,7.05444-1.84271,10.54041-2.93268,0.39-6.316,1.33014-13.11658,4.13269-17.861,3.05078-5.16486,7.1167-11.07037,10.17279-13.03326-2.47729,2.709-7.603,11.3443-9.44189,17.42108-1.54028,5.08685-1.2373,7.94391-1.36627,12.34088,3.70306-1.23676,7.37793-2.588,11.01862-4.01953q3.36291-1.16153,6.6958-2.41687c0.97095-4.46753,2.41-9.206,5.05377-12.1886,2.87482-3.23395,6.601-6.853,9.13947-7.79468a40.1722,40.1722,0,0,0-9.05,11.04663,23.13849,23.13849,0,0,0-2.21686,7.828,317.43274,317.43274,0,0,0,34.45715-15.73041,318.25683,318.25683,0,0,1-38.38306,21.86328c2.83917,2.3717,4.62079,4.18622,8.85724,6.165,5.27277,2.46088,14.34393,4.40826,17.73627,4.4809-3.24664.72791-9.80554-.252-15.22113-1.428-4.87421-1.05267-9.96014-4.38495-14.421-7.80817-6.185,2.45306-12.47089,4.69836-18.88568,6.58105a37.27488,37.27488,0,0,0,8.98041,7.41895c5.89014,3.42542,16.26923,6.65381,20.21942,7.09662-3.86713.5072-11.4115-1.33185-17.60785-3.27167-5.37659-1.68506-10.75568-5.84912-15.47479-10.15228q-1.34537.36374-2.69727,0.69989a121.69715,121.69715,0,0,1-14.86621,2.79413c2.80457,3.90625,4.27545,4.84344,9.54114,9.23309a52.60277,52.60277,0,0,0,18.13843,9.35126c-3.90692.0791-12.19794-3.77582-16.65857-6.13782-4.09808-2.17554-8.3717-5.52271-14.59381-12.09271-2.21613.17645-4.44586,0.265-6.68915,0.24994a43.48511,43.48511,0,0,0,2.51337,6.9458c9.22247,19.77887,52.32031,26.20032,52.32031,26.20032a32.81133,32.81133,0,0,1-3.77631-2.69238,13.10173,13.10173,0,0,1-3.066-3.82336s7.92743,0.69885,11.38647.717c3.45831,0.02441,13.15155-1.644,13.15155-1.644s-1.55975-1.19476-3.19391-2.41c-1.63452-1.21661-2.948-2.04309-2.948-2.04309a103.86926,103.86926,0,0,0,12.29443-3.73718c4.63342-1.92273,11.00964-5.28815,11.00964-5.28815s-2.5592-.70239-4.51855-1.40417c-1.96045-.69934-5.04126-1.98834-5.04126-1.98834s8.57892-3.1322,13.01257-6.47638c4.43317-3.34143,12.13446-10.02,12.13446-10.02a29.60794,29.60794,0,0,1-4.42773-1.05969,5.20045,5.20045,0,0,1-2.7937-2.01044s6.97479-2.20306,10.0202-4.36432c3.04138-2.16614,8.89148-7.48016,8.89148-7.48016a50.80659,50.80659,0,0,1-6.7677-1.37976A18.54513,18.54513,0,0,1,280.40717,117.91937Z" transform="translate(-172.03829 -78.28406)"/>
</svg>
