<svg id="Layer_1" data-name="Layer 1" xmlns="http://www.w3.org/2000/svg" viewBox="0 0 135.77028 111.86888">
  <defs>
    <style>
      .cls-1 {
        fill: #8fc73e;
      }
    </style>
  </defs>
  <title>leaf4</title>
  <path class="cls-1" d="M62.52277,226.70648c19.03522-36.58453,42.6748-35.82245,76.87115-42.64264-20.71948-7.87848-43.4126-14.47815-72.28021-10.72589,10.30109,1.92181,19.131,3.55969,20.50763,9.123C65.69464,177.17877,43.7514,189.19,29.931,205.24548c6.965,0.53131,12.95624-2.5069,20.226-2.3175C22.03149,213.72375,3.30035,255.75226,20.0351,284.12506c-1.18549-15.43726.89856-21.44293,8.51776-26.587,17.711-11.96014,58.56708-8.42072,58.35352-6.62366,4.4613-7.54712,22.13129-37.00116,23.36456-43.6275,3.31665,9.37262-15.92682,35.88123-13.97827,44.59369,30.81238-10.59784,33.816-39.72382,53.19379-55.66058C119.64545,186.11145,78.91241,201.938,62.52277,226.70648Z" transform="translate(-13.71617 -172.25619)"/>
</svg>
