<svg id="Layer_1" data-name="Layer 1" xmlns="http://www.w3.org/2000/svg" viewBox="0 0 305.64624 62.867">
  <defs>
    <style>
      .cls-1 {
        fill: #231f20;
      }
    </style>
  </defs>
  <title>texttag</title>
  <path class="cls-1" d="M53.10626,347.60835v62.867H358.7525v-62.867H53.10626ZM84.839,382.27706v10.98438h-4.1875V382.27706l-4.60937-16.51562h4l2.71875,10.28125h0.0625l2.42188-10.28125h3.98438ZM95.718,391.58174q-1.47656-1.99219-1.47656-6.00781V372.99581q0-7.04965,5.36621-7.52557V369.231a1.48265,1.48265,0,0,0-.71777.72577,6.95633,6.95633,0,0,0-.42969,2.83594v12.82813a10.57477,10.57477,0,0,0,.36719,3.375,1.36315,1.36315,0,0,0,.78027.80737v3.74017A5.08853,5.08853,0,0,1,95.718,391.58174Zm10.67969-6.00781q0,4.03125-1.4375,6.01563a5.00761,5.00761,0,0,1-3.91309,1.95642v-3.74042a1.36891,1.36891,0,0,0,.78809-0.83319,10.8399,10.8399,0,0,0,.35938-3.35156v-12.8125a8.12006,8.12006,0,0,0-.36719-2.85156,1.33149,1.33149,0,0,0-.78027-0.77271v-3.726a4.99514,4.99514,0,0,1,3.95215,1.89709,9.53294,9.53294,0,0,1,1.39844,5.64063v12.57813Zm18.63574,0.625q0,3.79688-1.4375,5.58594-1.437,1.79-4.61719,1.78906a5.58655,5.58655,0,0,1-4.625-1.79687q-1.4458-1.7959-1.44531-5.57812V365.74581h4.1875v20.375a9.50044,9.50044,0,0,0,.20313,2.64063,4.15456,4.15456,0,0,0,.49219.85156,1.44554,1.44554,0,0,0,1.19531.38281,1.50213,1.50213,0,0,0,1.29688-.53125,2.67028,2.67028,0,0,0,.47656-1.32031,19.25592,19.25592,0,0,0,.08594-2.02344v-20.375h4.1875v20.45313Zm24.57227,7.0625-0.65625-4.90625h-2.95654l0.39429-3.35937h2.12476l-1.84375-13.8125h-0.0625l-1.0166,8.32111-0.00671-.00079-0.16577,1.41248-0.49841,4.07971h0.01965l-0.39416,3.35938H144.5119l-0.59375,4.90625H139.8869l3.92188-27.5H149.34l4.17188,27.5h-3.90625Zm14.23926,0h-4.1875v-27.5h4.20313v14.51636l-0.01562-.00073v12.98438Zm3.70313,0q-0.15674-.312-0.15625-9.85937a4.554,4.554,0,0,0-.4375-2.42969A2.0772,2.0772,0,0,0,165.3,380.349v-3.322h0.23242a1.67205,1.67205,0,0,0,1.17969-.35937,2.169,2.169,0,0,0,.53125-1.23437,17.50256,17.50256,0,0,0,.14844-2.67187v-0.17187a7.22581,7.22581,0,0,0-.375-2.92187,1.80583,1.80583,0,0,0-1.7168-.68628v-3.22h1.2793a5.02156,5.02156,0,0,1,3.21875.86719,4.14029,4.14029,0,0,1,1.39844,2.42188,19.924,19.924,0,0,1,.33594,4.0625,10.649,10.649,0,0,1-.53125,3.82031,2.96428,2.96428,0,0,1-1.96875,1.76563,2.55171,2.55171,0,0,1,1.98438,1.92188,26.88952,26.88952,0,0,1,.5625,6.96094,45.16926,45.16926,0,0,0,.15625,5.67969H167.548Zm20.125,0h-9.40625v-27.5h9.21875v3.60938h-5.03125v8h4.78125v3.53125h-4.78125v8.75H187.673v3.60938Zm23.94727,0-0.65625-4.90625h-2.97949l0.39429-3.35937h2.14771l-1.84375-13.8125h-0.0625l-1.01685,8.32373-0.02942-.00342-1.0387,8.85156h-0.00879l-0.59375,4.90625h-4.03125l3.92188-27.5h5.53125l4.17188,27.5H211.6203Zm24.49121,0h-4.17187l-2.4375-18.28125-2.53125,18.28125H222.799l-3.35937-27.5h3.75l2.01563,19.59375,2.5625-19.59375h3.375l2.57813,19.59375,1.78125-19.59375h3.76563Zm18.73047,0h-9.40625v-27.5h9.21875v3.60938h-5.03125v8h4.78125v3.53125h-4.78125v8.75H254.842v3.60938Zm16.26465-1.53125q-1.29785,1.84424-4.53906,1.84375-3.24316,0-4.51562-2.05469a11.47587,11.47587,0,0,1-1.27344-5.99219v-2.45312h3.96875v2.76563a9.24189,9.24189,0,0,0,.39063,3.22656,1.45261,1.45261,0,0,0,1.46875.92969,1.41085,1.41085,0,0,0,1.42969-.76562,6.44509,6.44509,0,0,0,.35156-2.5,6.86727,6.86727,0,0,0-.625-3.02344,10.73913,10.73913,0,0,0-1.98437-2.69531l-2.03125-2.09375a12.45358,12.45358,0,0,1-2.21094-3.07812,8.20325,8.20325,0,0,1-.78906-3.6875,8.08507,8.08507,0,0,1,1.3125-5.0625q1.3125-1.65527,4.51563-1.65625,3.20215,0,4.33594,1.92969a11.30121,11.30121,0,0,1,1.13281,5.63281v1.70313h-3.85937v-1.96875a8.53033,8.53033,0,0,0-.34375-2.86719,1.29813,1.29813,0,0,0-1.32031-.86719,1.55412,1.55412,0,0,0-1.40625.65625,3.62647,3.62647,0,0,0-.42969,1.96875,4.28144,4.28144,0,0,0,.4375,2.09375,11.24692,11.24692,0,0,0,1.57813,2l2.26563,2.45313a14.45784,14.45784,0,0,1,2.57031,3.73438,9.77681,9.77681,0,0,1,.86719,4.125Q272.4035,389.88692,271.10663,391.73018Zm8.83887-.14844q-1.47656-1.99219-1.47656-6.00781V372.99581q0-7.04965,5.36621-7.52557V369.231a1.48265,1.48265,0,0,0-.71777.72577,6.95633,6.95633,0,0,0-.42969,2.83594v12.82813a10.57477,10.57477,0,0,0,.36719,3.375,1.36315,1.36315,0,0,0,.78027.80737v3.74017A5.08853,5.08853,0,0,1,279.94549,391.58174Zm10.67969-6.00781q0,4.03125-1.4375,6.01563a5.00761,5.00761,0,0,1-3.91309,1.95642v-3.74042a1.36891,1.36891,0,0,0,.78809-0.83319,10.8399,10.8399,0,0,0,.35938-3.35156v-12.8125a8.12006,8.12006,0,0,0-.36719-2.85156,1.33149,1.33149,0,0,0-.78027-0.77271v-3.726a4.99514,4.99514,0,0,1,3.95215,1.89709,9.53294,9.53294,0,0,1,1.39844,5.64063v12.57813Zm24.63184,7.6875h-3.73437v-10.25l0.15625-9.40625-3.70312,19.53125h-3.32812l-3.85937-19.53125,0.15625,9.40625v10.25h-3.70312v-27.5h5.20313l3.90625,20.09375,3.67188-20.09375H315.257v27.5Zm16.21875,0h-9.40625v-27.5h9.21875v3.60938H326.257v8h4.78125v3.53125H326.257v8.75h5.21875v3.60938Z" transform="translate(-53.10626 -347.60835)"/>
</svg>
