<svg id="Layer_1" data-name="Layer 1" xmlns="http://www.w3.org/2000/svg" viewBox="0 0 271.61353 68.05395">
  <defs>
    <style>
      .cls-1 {
        fill: #d9e021;
      }
    </style>
  </defs>
  <title>christmas</title>
  <g>
    <path class="cls-1" d="M1060.36556,3565.26172a1.41653,1.41653,0,0,0,.09082.81641c-0.72559.90625-1.45117,1.72266-2.2666,2.90039a4.733,4.733,0,0,1-3.89844,1.8125c-2.99121.27148-5.34766,0-6.79883-.81641a23.349,23.349,0,0,0-6.16406-1.7207c-2.44727-.27344-4.26074-1.541-5.80176-3.99023a35.38527,35.38527,0,0,1-3.26367-8.70117,72.6272,72.6272,0,0,1-1.17871-19.12891c0.36328-3.80664,1.17871-7.61524,1.9043-11.33008a8.01542,8.01542,0,0,0,.63477-2.62891c0.27148-5.53125,3.98828-10.1543,5.8916-15.23047a10.63954,10.63954,0,0,0,1.08789-.998c0.54394-.36133,2.44824-1.44922,4.35156-2.44727a20.86635,20.86635,0,0,1,5.9834.90625c4.89453,0.998,9.51855,3.89844,9.24609,9.33789,1.4502,5.98242.81641,9.97266,0.45313,14.23242a7.12189,7.12189,0,0,0-2.085.543c-1.08789-1.26758-1.63184-3.53516-1.4502-6.79883a48.72862,48.72862,0,0,0-.18164-9.51758h-0.08984a2.73663,2.73663,0,0,0-.81641-1.35937,2.86723,2.86723,0,0,0-2.085-.81641,3.51741,3.51741,0,0,0-2.085.81641,17.44446,17.44446,0,0,0-2.81055,1.63086,4.10018,4.10018,0,0,0-1.08789,3.44531c-0.3623,2.71875-1.08789,8.25-1.90332,13.96094l-1.08789,9.42773a61.36424,61.36424,0,0,0-.54394,6.25391c0,1.72266.45313,3.627,0.54394,5.34961,0.09082,5.71094,1.36035,9.88086,3.53516,12.69141,2.17578,2.62891,5.43945,1.08789,9.791-4.80469V3558.916a1.787,1.787,0,0,0,.18066-0.54492,3.04829,3.04829,0,0,0,.4541-1.541,11.93257,11.93257,0,0,1,.08984-2.53711v-0.27149a9.7073,9.7073,0,0,0,.63477-2.99219,5.0313,5.0313,0,0,1,.63477-0.81641,5.23974,5.23974,0,0,0,2.35742.18164,3.26709,3.26709,0,0,1-.09082,2.62891C1062.722,3557.46484,1062.63216,3562.45117,1060.36556,3565.26172Z" transform="translate(-1030.88197 -3502.83884)"/>
    <path class="cls-1" d="M1094.73958,3512.23047c-0.27148,1.63086-.45312,2.62891-0.45312,2.99023a44.94719,44.94719,0,0,0-.18164,7.97852,74.87371,74.87371,0,0,1,.09082,7.70508c-0.27148,2.26563.36328,4.623-.18066,6.3457,0.45313,3.80664.99707,8.88477,1.35938,15.32031,0.45313,6.43555.63477,11.15039,0.63477,14.50391a32.676,32.676,0,0,0-3.26367,1.45117c-2.2666.81641-3.80762,0.72461-5.167-.36328-0.72559-3.80664-1.17871-9.06445-1.72266-15.77344a128.06061,128.06061,0,0,1-.3623-16.04492c-2.085-.63477-4.89551-0.54492-8.70312.08984a53.42538,53.42538,0,0,0-5.89258.998c0.18164,3.26367.18164,7.07031,0.63477,10.24414,0.27246,1.7207.54395,4.71289,0.99707,8.88281,0.45313,4.35156.54395,7.16211,0.18164,8.61328a0.93872,0.93872,0,0,1-.09082.27148c-0.45312,2.99024-2.53809,2.81055-4.623,2.71875a0.80974,0.80974,0,0,1-.45312.0918,11.27411,11.27411,0,0,1-3.44531.17969c-3.53516.27344-2.99121-.63281-2.99121-2.35547-0.18164-1.17969-.54395-2.44922-0.09082-3.44531a50.1794,50.1794,0,0,1-1.35937-12.23828l-0.27246-12.60156a0.31782,0.31782,0,0,0-.18066-0.08984v-3.80664c0-.0918-0.09082-0.18164-0.09082-0.27344a22.71927,22.71927,0,0,0,.3623-5.166,36.39619,36.39619,0,0,0-.09082-4.26172c-0.18066-1.8125-.27148-3.35352-0.27148-4.35156,0.27148-3.53516.45313-6.707,0.45313-10.78711,0-.63477-0.45312-0.45312-0.45312-0.90625,0.45313,0.18164,1.63184-.27149,3.44434-1.541,2.99219,0.45313,5.9834.54492,8.79394,1.63086h0.18066c0,2.81055,0,5.98438-.27148,9.60938a153.81151,153.81151,0,0,0-.18164,15.502c0.27246,0.36328.99707,0.45313,2.085,0.27148l5.9834-.63281,6.25488-.81641,0.18164-3.53516c0.18066-2.35742.27148-4.71484,0.36231-7.52539,0.18164-2.62891.3623-5.07617,0.45313-7.3418,0-1.45117.09082-2.44726,0.09082-3.082h-0.18164c-0.3623-5.43945,9.42773,0,8.6123-.0918A12.73581,12.73581,0,0,1,1094.73958,3512.23047Z" transform="translate(-1030.88197 -3502.83884)"/>
    <path class="cls-1" d="M1115.6888,3567.98047c-2.17578-8.70117,6.3457-28.373-8.97461-28.10156a1.552,1.552,0,0,1-.54395-0.27148c0,0.18164.09082,0.27148,0.09082,0.45313a23.17251,23.17251,0,0,0,.27246,3.53516q0.40723,4.35059.54394,10.60547a68.15828,68.15828,0,0,0,.81543,11.78516c0,0.90625,1.541,2.53906-.63477,3.082-1.8125.45313-2.99121-.08984-4.98535-0.08984h-0.81641a14.7539,14.7539,0,0,1-1.99414,0c-1.72266,0-2.62891.81641-4.0791,0.18164-1.541-.63476-0.63477-1.26953-0.63477-2.44726,0-2.26758-.09082-5.168-0.27246-8.79492-0.27148-4.16992-.3623-8.33984-0.543-12.59961-0.27246-4.35156-.36328-8.25-0.27246-11.9668,0-1.8125.09082-3.35352,0.18164-4.623-0.09082-3.35352-.18164-6.709-0.36328-10.0625-0.08984-2.44727-.90625-5.98242,0-8.33984v-0.08984c-0.36231.08984-.27148-1.9043,0-2.08594,1.17871-.81641,1.9043-0.90625,4.98633-0.90625l1.541-.27149c2.71973-.63476,4.71387-0.72656,5.89258-0.36328a5.07146,5.07146,0,0,0,1.99414-.27148,5.50474,5.50474,0,0,0,1.72266,0c4.89551-.18164,11.33106-0.54492,14.957,2.90039,7.43359,15.04883-1.541,25.01953-11.60352,26.92383v0.18164c-1.63086.90625-3.53516,0.08984-4.71387,1.08789,29.00879-1.63281,15.22949,20.21484,18.22168,31.18359C1127.29232,3571.60742,1116.14193,3569.88477,1115.6888,3567.98047Zm-9.24609-46.23242v6.25586c0,0.72461-.27246,1.541-0.27246,2.17578a5.02567,5.02567,0,0,0,.18164,2.084c0.09082-.08984.18164,0.63477,0.18164,1.99414,1.541-.08984,3.98828.63476,5.62012-0.08984,4.623-2.08594,7.07129-8.97461,7.61523-11.24024,0.45313-2.08594,1.63086-7.97851-.27246-10.0625-1.541-3.082-3.26367-3.44531-6.3457-2.99219a10.59939,10.59939,0,0,0-4.44141,1.35938,4.7611,4.7611,0,0,0-1.08789,1.26953h-0.4541A36.6494,36.6494,0,0,0,1106.44271,3521.748Z" transform="translate(-1030.88197 -3502.83884)"/>
    <path class="cls-1" d="M1141.78744,3511.41406a2.2611,2.2611,0,0,0-.27148,1.541,2.3577,2.3577,0,0,0-.36328,1.35938v3.53516a8.9843,8.9843,0,0,0-.27148,2.17578,1.24772,1.24772,0,0,1-.3623.45313,84.66857,84.66857,0,0,1,0,20.39844,91.23572,91.23572,0,0,0,.543,23.83984h0.09082a1.29085,1.29085,0,0,0,.18164.54492l3.98828,0.27148c3.7168,0.27149-.18066,3.17383-2.26562,3.082-4.71387-.36133-10.24414-1.44922-14.50488,1.08789-2.62891,1.63281-6.708-3.082-3.80762-3.17187a26.98956,26.98956,0,0,0,3.80762-.36328c0-.27149-0.09082-0.543-0.09082-0.81641h0.09082a1.30361,1.30361,0,0,0-.18066-0.543l-0.09082-.0918v-0.27148c0-.18164-0.09082-0.27149-0.09082-0.45312v-0.08984c0-.27344.27148-0.45312,0.27148-0.72656-0.3623-4.34961-.54394-9.69922-0.54394-16.22656v-16.31641c-0.08984-2.08594-.27148-4.71484-0.63379-7.88672a33.34009,33.34009,0,0,1-.36328-7.61524c0.09082-1.26953.63477-2.35742,0.81641-3.53516,0-.18164.09082-0.27148,0.09082-0.45312a14.2074,14.2074,0,0,0,.36231-1.9043v-0.18164a8.98729,8.98729,0,0,0-1.4502.45313c-2.90137,1.17969-6.25488-3.80664-3.53613-3.53516,7.79688,0.81641,15.41113-.81641,23.207.90625,1.17871,0.27344,1.26953,1.26953.36328,1.99414a4.79314,4.79314,0,0,1-3.98926.81641,4.61038,4.61038,0,0,1-.99707-0.18164v1.9043Z" transform="translate(-1030.88197 -3502.83884)"/>
    <path class="cls-1" d="M1143.19173,3548.49023h0.27246a0.2786,0.2786,0,0,0,.18066.0918c0.998-.998,9.33789,2.35742,8.88477,2.53711a2.15163,2.15163,0,0,1,.45313.90625,21.89039,21.89039,0,0,0,.63477,6.52734,4.08306,4.08306,0,0,1,.08984.45313c0.27246,4.35156,4.44238,5.53125,5.25781,5.98438a3.20869,3.20869,0,0,1,.36328.81445,1.09906,1.09906,0,0,1,0-.543,2.36025,2.36025,0,0,0,3.44433-.08984,2.38538,2.38538,0,0,1,.54395-0.45508c3.082-2.62891,1.9043-11.05859,1.9043-14.86523a33.28235,33.28235,0,0,0-.36328-5.71289c-1.63184-4.16992-3.44434-5.89062-7.61426-7.3418-2.90137-1.17773-9.33789-5.07617-11.60352-9.15625a13.12466,13.12466,0,0,1-2.17578-11.78516,2.38588,2.38588,0,0,0,.27148-0.72461c0.90723-1.08789.99707-5.89258,2.81055-7.61523,1.4502-1.44922,12.96289-5.166,15.86426-4.623a13.07207,13.07207,0,0,0,3.7168.27149,8.7135,8.7135,0,0,1,4.623,2.35742,6.87873,6.87873,0,0,0,.99707.72461,2.47793,2.47793,0,0,1,.54395.45313,15.20448,15.20448,0,0,1,3.98926,7.97851v0.08984c0.18066,0.63477.27148,1.17969,0.36231,1.63281l0.3623,2.81055c-0.09082.45313-.3623,0.543-0.99707,0.45313-0.90625.543-5.43945,3.625-6.07324,0.99609-0.18164-.36133-0.4541-0.72461-0.54394-0.99609a30.17449,30.17449,0,0,0-.63477-4.5332c-0.18164-.36328-0.27246-0.72461-0.45312-0.998,0-.27149.27148-0.27149,0-0.45312-0.27246-.45312-0.45312-0.543-0.45312-0.45312a3.80557,3.80557,0,0,0-.63477-0.99609,0.336,0.336,0,0,0-.27246.08984c-0.72461-.543-5.98242-7.52344-9.06543-4.623-2.44727,2.35742-3.98828,7.61523-3.71582,12.873-0.27246-.63477,0,0.08984,0,0.08984,0.90625,2.35742.3623,8.52149,2.71875,9.24609a0.4808,0.4808,0,0,0,.36328,0,4.53775,4.53775,0,0,0,1.26855.36328,8.53292,8.53292,0,0,1,1.63184.36328,60.38281,60.38281,0,0,1,6.43652.72461,9.16483,9.16483,0,0,1,4.98633,2.35742c0.27148,0.08984.45313,0.27148,0.543,0.27148,2.99219,0.54492,5.43945,4.80469,5.89258,6.98047,0.09082,1.35938.27246,2.99219,0.36328,4.71484a36.03906,36.03906,0,0,0,.36231,3.80664,15.49264,15.49264,0,0,1-.81641,5.71094c0.4541,2.08594-.18066,3.627-0.81543,5.34766-2.90039,8.88477-7.252,9.791-13.7793,10.24414-1.541.18164-13.7793-1.35937-14.68555-2.084-2.2666-1.17969-4.80469-5.98437-5.89258-7.88672-1.8125-2.90234-1.541-11.332-.45312-11.9668A0.87166,0.87166,0,0,1,1143.19173,3548.49023Z" transform="translate(-1030.88197 -3502.83884)"/>
    <path class="cls-1" d="M1202.56966,3509.41992a4.46758,4.46758,0,0,1-1.541.543c-0.81641.0918-6.3457-.63477-7.16211-0.27149a1.45751,1.45751,0,0,1-.81543.27149c0.08984,0.36328.08984,0.72656,0.18066,1.08789l0.09082,0.0918a6.1318,6.1318,0,0,0-.45312,2.99024,47.948,47.948,0,0,1,.45313,5.62109c0,1.26953,0,3.7168-.09082,7.16211v21.75586c0,3.44531,0,5.71094.09082,6.89063a1.55693,1.55693,0,0,0-.36231.543,12.71026,12.71026,0,0,1,0,3.7168,32.48851,32.48851,0,0,1,.63477,6.52734c0.18066,0.72461,1.08789,2.62891-.36328,2.62891a26.007,26.007,0,0,1-6.97949-.08984,0.67468,0.67468,0,0,1-.4541-0.0918,18.30378,18.30378,0,0,1-2.1748.36328c-0.18164,0-.36328.08984-0.54395,0.08984-3.083,0-1.36035-1.63086-1.36035-2.53711a2.15717,2.15717,0,0,1-.27148-1.08789,6.11448,6.11448,0,0,1-.18164-1.26953v-0.18164c0-.36328-0.09082-0.72461-0.09082-1.08789v-0.998c0-1.26758,0-3.7168-.09082-7.252,0-5.5293-.09082-11.51172-0.27148-18.03906,0-6.52734-.18164-12.60156-0.27246-18.13086-0.08984-5.62109-.08984-8.61133-0.08984-8.97461a42.29387,42.29387,0,0,0-7.52441.0918c-1.26953-1.72266-.90625-2.35742-0.99707-3.627a1.43762,1.43762,0,0,1,1.8125-.08984c4.16992,0.27149,11.05957-.18164,14.77637.27149a1.78346,1.78346,0,0,0,.72559.08984,2.34413,2.34413,0,0,1,1.63184-.08984c0.3623,0,.72461.08984,1.17871,0.08984a2.53154,2.53154,0,0,0,.81543-0.08984v0.18164c0.72559,0.08984,1.45019.08984,2.17578,0.17969l4.16992-.27149h0.3623a0.336,0.336,0,0,1,.27246-0.08984c1.08789-.0918,1.63184.08984,1.72168,0.45313,0.18164,0.18164.4541,0.27148,0.63477,0.45313a3.259,3.259,0,0,1,.90723,1.26953A1.38844,1.38844,0,0,1,1202.56966,3509.41992Zm-29.64355.36328,0.09082,0.08984C1172.29134,3509.873,1172.38216,3509.7832,1172.92611,3509.7832Z" transform="translate(-1030.88197 -3502.83884)"/>
    <path class="cls-1" d="M1244.24154,3509.41992v0.27148a3.465,3.465,0,0,1-.81641,1.63281c0,0.08984.09082,0.08984,0.09082,0.17969,0,1.541-1.17773,2.35742-1.17773,4.16992-0.54395.54492-.81641,2.26758-0.63477,5.07813,0.18066,2.80859-.09082,4.44141-0.63477,4.89453,0,8.88477.63477,19.127,0.63477,29.00781a47.59166,47.59166,0,0,0,.54394,5.80273c0.09082,0.543.18066,1.26953,0.36231,2.17578a2.17014,2.17014,0,0,1-.18164,1.26953,0.47937,0.47937,0,0,1,.18164.27148,0.96026,0.96026,0,0,1-.18164,1.17774c0,0.0918,0,.0918-0.08984.0918v0.18164c0.08984,1.17773-1.08789,2.44727-1.99512,2.99023-0.63379.45313-1.72168,0.72656-1.99414-.08984-1.72266.08984-3.44434,0.27148-5.25781,0.45313a17.4879,17.4879,0,0,0-3.082-.08984,88.62591,88.62591,0,0,0-.36231-20.66992,90.78784,90.78784,0,0,1,0-22.209,2.93817,2.93817,0,0,1-1.26953,1.08789,10.97518,10.97518,0,0,1-1.4502,2.26563c-2.35742,4.98633-4.44238,9.97266-6.98047,14.68555a2.94176,2.94176,0,0,1-1.26953,1.45117c-0.45312.99609-.90625,1.44922-1.26855,1.26758a5.27269,5.27269,0,0,1-.18164-1.17773c-1.90332-2.53906-2.53809-6.52734-4.35156-9.51758a4.55092,4.55092,0,0,0-.99707-2.62891c-0.09082,2.99024,0,6.707.18164,10.877l0.81543,12.23828c0.27246,3.80859.4541,6.98047,0.54394,9.60938,0,1.9043.72559,3.17383-.3623,3.35351a26.041,26.041,0,0,0-8.33984-.72461l-0.99707-.27148c-1.36035.08984-2.44824,0.08984-3.7168,0.08984-1.17871,0-.18164-1.44922-0.18164-2.35742v-8.97266a6.404,6.404,0,0,1,.54394-2.26758v-0.27148c-0.09082-1.63281-.18164-3.17383-0.3623-4.80469a7.09276,7.09276,0,0,1-.18164-1.26953c-0.09082-9.88086-.27148-20.21484-0.81543-27.55859a39.30625,39.30625,0,0,1,.09082-6.52734,11.54616,11.54616,0,0,0-.63477-6.16406c1.26855-.36133,2.62891-1.26758,3.53516-0.543l2.085-.18164a16.17614,16.17614,0,0,0,3.35449-.543,12.05323,12.05323,0,0,1,3.53516-.18164,5.0253,5.0253,0,0,0,.27246,1.541,8.74232,8.74232,0,0,1,.543,1.26953l0.27246,0.99609a0.54864,0.54864,0,0,0,.09082.36328,0.98188,0.98188,0,0,0-.09082.45313,7.65892,7.65892,0,0,0,.27148,2.99024,3.51255,3.51255,0,0,0,.998,1.36133c0.27148,0.63476,0,1.72266.36231,2.44726a3.44861,3.44861,0,0,0,.72461.99609c1.26953,2.08594,1.542,5.07813,2.53906,7.43359,0.99707,2.62891,2.35644,4.98633,2.99121,7.07226,1.17871-.54492,1.35938-2.44922,1.81348-3.7168a54.77727,54.77727,0,0,1,2.99121-5.62109c1.541-2.71875,3.26367-5.5293,4.98535-8.42969l4.5332-7.07226c0.09082,0,.09082-0.08984.18164-0.08984a4.07657,4.07657,0,0,1,.45313-1.541c0.63379-2.08594,1.26855-1.45117,4.80469-1.72266,3.80664-.27148,5.80176.36328,4.98535,3.80664C1244.69466,3509.69141,1244.42318,3509.41992,1244.24154,3509.41992Z" transform="translate(-1030.88197 -3502.83884)"/>
    <path class="cls-1" d="M1269.7972,3567.52734a1.97864,1.97864,0,0,0-1.541,1.26953v0.0918c-0.90723.63281-2.2666,0.45313-3.17285,0.45313a12.005,12.005,0,0,0-1.81348-.0918c-0.18164,0-.36231-0.08984-0.54395-0.08984a12.1281,12.1281,0,0,0-3.17285-.45312v-0.45312a45.24515,45.24515,0,0,0-.72559-4.89648c0-4.25977-1.17773-9.42773-1.35937-13.32617a49.62383,49.62383,0,0,0-5.5293-.72461c-2.62891-.45312-4.35156-0.63477-5.168-0.90625a71.53113,71.53113,0,0,0-1.72168,9.51758l-0.54395,3.7168c0,0.36328-.63477,6.79883-0.72559,6.98047-1.08789,1.81445-3.80762,1.26953-4.0791.18164l1.35938-7.61523c0.27246-1.35937.45313-2.90039,0.63477-4.623,0.54395-3.80664.90625-6.79883,1.17871-8.97461a7.20961,7.20961,0,0,0,.90625-3.44531v-0.08984a0.347,0.347,0,0,1,.18164-0.18164c0-.45312,1.90332-13.416,2.17578-13.59766a12.82262,12.82262,0,0,0,.63379-2.81055l0.27246-.63476a0.48867,0.48867,0,0,1,.3623-0.36133,82.40661,82.40661,0,0,1,3.80762-14.959c0.3623-1.26758,1.08789-2.17578,1.08789-3.7168a12.475,12.475,0,0,0,4.26074-.99609c1.90332-.63477,3.26367-0.63477,3.89746-0.0918,0.54395,0.54492.99707,1.08789,1.45117,1.63281a115.82931,115.82931,0,0,0,1.90332,12.32813,26.10544,26.10544,0,0,0,.90625,7.43359,25.18869,25.18869,0,0,0,.45313,6.25586c0.09082,0.543.36328,1.08789,0.54395,1.72266a50.63714,50.63714,0,0,1,.72559,5.89258l1.17871,10.24219,1.26855,10.0625A52.37136,52.37136,0,0,0,1269.7972,3567.52734Zm-12.96387-21.666c-0.18066-4.98437-2.44727-24.20312-2.26562-29.64258a16.26322,16.26322,0,0,0-.18164-3.627c-0.27246.63477-3.626,14.41406-4.35156,14.86719a0.18265,0.18265,0,0,1,.09082.18164,2.89522,2.89522,0,0,0-.27246,1.26953v0.81641c-0.90625,3.89648-2.17481,14.32226-2.62891,15.13867a14.803,14.803,0,0,0,4.624.99609,45.37664,45.37664,0,0,1,4.80469.54492C1256.74251,3546.40625,1256.56185,3545.86133,1256.83333,3545.86133Z" transform="translate(-1030.88197 -3502.83884)"/>
    <path class="cls-1" d="M1266.931,3548.49023h0.27246a0.2786,0.2786,0,0,0,.18066.0918c0.998-.998,9.33789,2.35742,8.88477,2.53711a2.15163,2.15163,0,0,1,.45313.90625,21.89039,21.89039,0,0,0,.63477,6.52734,4.08306,4.08306,0,0,1,.08984.45313c0.27246,4.35156,4.44238,5.53125,5.25781,5.98438a3.20865,3.20865,0,0,1,.36328.81445,1.09907,1.09907,0,0,1,0-.543,2.36026,2.36026,0,0,0,3.44434-.08984,2.38538,2.38538,0,0,1,.54395-0.45508c3.082-2.62891,1.9043-11.05859,1.9043-14.86523a33.28224,33.28224,0,0,0-.36328-5.71289c-1.63184-4.16992-3.44434-5.89062-7.61426-7.3418-2.90137-1.17773-9.33789-5.07617-11.60352-9.15625a13.12466,13.12466,0,0,1-2.17578-11.78516,2.38588,2.38588,0,0,0,.27148-0.72461c0.90723-1.08789.99707-5.89258,2.81055-7.61523,1.45019-1.44922,12.96289-5.166,15.86426-4.623a13.07206,13.07206,0,0,0,3.7168.27149,8.7135,8.7135,0,0,1,4.623,2.35742,6.8788,6.8788,0,0,0,.99707.72461,2.478,2.478,0,0,1,.54394.45313,15.20448,15.20448,0,0,1,3.98926,7.97851v0.08984c0.18066,0.63477.27148,1.17969,0.3623,1.63281l0.36231,2.81055c-0.09082.45313-.36231,0.543-0.99707,0.45313-0.90625.543-5.43945,3.625-6.07324,0.99609-0.18164-.36133-0.4541-0.72461-0.54395-0.99609a30.17435,30.17435,0,0,0-.63477-4.5332c-0.18164-.36328-0.27246-0.72461-0.45312-0.998,0-.27149.27148-0.27149,0-0.45312-0.27246-.45312-0.45312-0.543-0.45312-0.45312a3.80557,3.80557,0,0,0-.63477-0.99609,0.336,0.336,0,0,0-.27246.08984c-0.72461-.543-5.98242-7.52344-9.06543-4.623-2.44727,2.35742-3.98828,7.61523-3.71582,12.873-0.27246-.63477,0,0.08984,0,0.08984,0.90625,2.35742.3623,8.52149,2.71875,9.24609a0.48079,0.48079,0,0,0,.36328,0,4.53776,4.53776,0,0,0,1.26855.36328,8.53294,8.53294,0,0,1,1.63184.36328,60.38276,60.38276,0,0,1,6.43652.72461,9.16483,9.16483,0,0,1,4.98633,2.35742c0.27148,0.08984.45313,0.27148,0.543,0.27148,2.99219,0.54492,5.43945,4.80469,5.89258,6.98047,0.09082,1.35938.27246,2.99219,0.36328,4.71484a36.03909,36.03909,0,0,0,.3623,3.80664,15.49264,15.49264,0,0,1-.81641,5.71094c0.4541,2.08594-.18066,3.627-0.81543,5.34766-2.90039,8.88477-7.252,9.791-13.7793,10.24414-1.541.18164-13.7793-1.35937-14.68555-2.084-2.2666-1.17969-4.80469-5.98437-5.89258-7.88672-1.8125-2.90234-1.541-11.332-.45312-11.9668A0.87166,0.87166,0,0,1,1266.931,3548.49023Z" transform="translate(-1030.88197 -3502.83884)"/>
  </g>
</svg>
