<svg id="Layer_1" data-name="Layer 1" xmlns="http://www.w3.org/2000/svg" viewBox="0 0 129.64697 141">
  <defs>
    <style>
      .cls-1 {
        fill: #dfedef;
      }

      .cls-2 {
        fill: #f15a24;
      }
    </style>
  </defs>
  <title>snowman</title>
  <circle class="cls-1" cx="66.07129" cy="31" r="31"/>
  <circle class="cls-1" cx="66.07129" cy="95.83333" r="45.16667"/>
  <g>
    <polygon points="10.814 43.851 7.829 44.149 8.583 51.689 3.983 46.052 1.659 47.948 7.283 54.842 0.143 54.502 0 57.498 9.952 57.972 30.052 76.601 32.091 74.399 12.007 55.786 10.814 43.851"/>
    <polygon points="129.647 60.173 129.504 57.177 123.389 57.468 129.363 50.146 127.039 48.249 120.911 55.76 121.923 45.644 118.938 45.345 117.688 57.845 117.891 57.865 100.052 74.399 102.091 76.601 119.283 60.666 129.647 60.173"/>
  </g>
  <path class="cls-2" d="M-171.66667,3053c1.13748-.97783,38.3125,5.67266,38.3125,5.67266l-38.3125,5.82734S-178.79167,3059.125-171.66667,3053Z" transform="translate(250.73796 -3025)"/>
  <circle cx="69.73796" cy="18.5" r="3.33333"/>
  <circle cx="78.50448" cy="75.86711" r="2.59985"/>
  <circle cx="78.50448" cy="90.07544" r="2.59985"/>
  <circle cx="78.50448" cy="104.28377" r="2.59985"/>
  <circle cx="84.07129" cy="16.83333" r="3.33333"/>
</svg>
