<svg id="Layer_1" data-name="Layer 1" xmlns="http://www.w3.org/2000/svg" viewBox="0 0 277.35486 288">
  <defs>
    <style>
      .cls-1 {
        fill: #009245;
      }
    </style>
  </defs>
  <title>tree</title>
  <path class="cls-1" d="M408.05312,2440.59882L410.02688,2406s-32.129,3.09674-37.93549-3.871,51.0968-20.90326,51.0968-20.90326-15.48389-.38709-14.32257-1.54834-12-12-12-12l-3.0968-3.871-41.80646,6.96771,25.93549-27.48389-23.61291,1.16132L378.672,2306.129l-17.8064,5.80646s-10.83875-1.30646-11.22583-3.629S358.93014,2295,358.93014,2295h20.9032l-18.96771-16.40326-11.61291,1.76617s3.871-16.05243,17.80646-17.21375c0,0,.77417-8.26813-0.38715-8.26813s-30.96771-.60181-30.96771-0.60181L342.672,2243.817s13.35486,2.89795,16.25812,1.73663-33.29034-19.93811-33.29034-19.93811l10.06451-16.06586-14.82245-1.73706,12.11279-9.2962L284.51021,2166l-52.54785,52.64514,14.90326,1.43951-21.48389,34.21576-24.38708-4.66638-8.129,12.76361,26.129,3.47858-26.129,19.15869-5.95166,6.96637-6.96771,2.03162,29.75806,6.09643L207.96236,2304H177.18819l-5.51617,16.93549,40.93549,18.64514L166.73653,2353h-7.54834l7.83868,2.01611,23.51611,11.75-20.32257,15.60083,13.93549-1.48993-2.9032,11.59375-24.0968,6.95813-8.41937,10.73718s33.0968-3.196,37.74194,3.77179,4.35486,12.48267,2.32257,15.67621-42.96771,11.03168-42.96771,11.03168l22.35486,1.74164-22.35486,8.12885,65.32257-9.871L278.22042,2454l59.41937-6.96771,68.76263-4.96228,1.18091,6.76331,0.39233-6.87683,4.76086-.34357Zm-41.63647-9.0155,35.86145-13.13355,3.79248,21.71979Z" transform="translate(-145.83333 -2166)"/>
</svg>
