<svg id="Layer_1" data-name="Layer 1" xmlns="http://www.w3.org/2000/svg" viewBox="0 0 150.33836 200.66992">
  <defs>
    <style>
      .cls-1 {
        fill: #ed1c24;
      }

      .cls-2 {
        fill: #efefe8;
      }
    </style>
  </defs>
  <title>xmas-sock</title>
  <path class="cls-1" d="M465.33627,3166a7.99706,7.99706,0,0,1,7.99706,7.99706V3260c0,51.95-37.82,95.31006-89.93,103.12a51.15414,51.15414,0,0,1-7.47.54993,50.00108,50.00108,0,0,1-7.34-99.45c4.74-.71,4.74-3.35,4.74-4.22v-86.00294A7.99706,7.99706,0,0,1,381.33039,3166h84.00588Z" transform="translate(-325.99497 -3163)"/>
  <path class="cls-2" d="M476.33333,3172.06667V3197h-106v-24.93333c0-5.00938,3.69939-9.06667,8.38457-9.06667h89.05061A8.86152,8.86152,0,0,1,476.33333,3172.06667Z" transform="translate(-325.99497 -3163)"/>
</svg>
