<svg id="Layer_1" data-name="Layer 1" xmlns="http://www.w3.org/2000/svg" viewBox="0 0 200.66666 179.92706">
  <defs>
    <style>
      .cls-1 {
        fill: #f7931e;
      }
    </style>
  </defs>
  <title>heart-balloon</title>
  <path class="cls-1" d="M1719.92137,2735.85968l8.29385-14.36536a3.60048,3.60048,0,0,1,6.23622,0l8.29385,14.36536a3.60048,3.60048,0,0,1-3.11811,5.40073h-16.58769A3.60049,3.60049,0,0,1,1719.92137,2735.85968Z" transform="translate(-1631 -2561.33334)"/>
  <path class="cls-1" d="M1731.33333,2730.0018c33.35405-10.84685,100.33333-59.65766,100.33333-113.07838,0-31.18468-25.76126-55.59009-55.59009-55.59009s-44.74324,26.57414-44.74324,26.57414-14.91441-26.57414-44.74324-26.57414S1631,2585.73874,1631,2616.92343C1631,2670.34415,1697.97927,2719.155,1731.33333,2730.0018Z" transform="translate(-1631 -2561.33334)"/>
</svg>
